<svg id="Layer_1" data-name="Layer 1" xmlns="http://www.w3.org/2000/svg" viewBox="0 0 780.85 87.91"><defs><style>.cls-1{fill:#a24a9c;}</style></defs><polygon class="cls-1" points="22.58 87.91 0 87.91 11.29 68.35 22.58 87.91"/><polygon class="cls-1" points="50.86 67.79 39.38 87.68 31.24 73.56 19.76 53.68 0.25 19.91 23.21 19.91 31.24 33.8 42.72 53.68 50.86 67.79"/><polygon class="cls-1" points="101.6 87.68 101.46 87.91 78.76 87.91 78.64 87.68 70.49 73.56 59.01 53.69 59.01 53.68 50.86 39.57 62.22 19.91 62.47 19.91 70.49 33.8 81.97 53.68 90.12 67.79 101.6 87.68"/><polygon class="cls-1" points="62.34 19.69 62.22 19.91 39.51 19.91 39.38 19.69 28.02 0 50.97 0 62.34 19.69"/><polygon class="cls-1" points="140.84 87.68 140.72 87.91 118.02 87.91 117.89 87.68 109.74 73.56 98.26 53.68 90.12 39.57 78.76 19.91 78.64 19.69 90 0 90.22 0 101.6 19.69 101.47 19.91 101.72 19.91 109.74 33.8 121.22 53.68 129.36 67.79 140.84 87.68"/><polygon class="cls-1" points="180.1 87.68 179.96 87.91 157.27 87.91 157.14 87.68 149 73.56 137.52 53.69 137.52 53.68 129.36 39.57 118.01 19.91 117.89 19.69 109.8 5.67 109.74 5.58 106.52 0 129.48 0 132.75 5.67 140.84 19.69 140.72 19.91 140.97 19.91 149 33.8 160.47 53.68 160.47 53.69 168.62 67.79 180.1 87.68"/><path class="cls-1" d="M452,546c1.31,2.33,2.47,4.38,3.45,6.14s1.85,3.33,2.6,4.71,1.41,2.63,2,3.76,1.12,2.24,1.65,3.32c.48-1.08,1-2.17,1.57-3.27s1.23-2.36,2-3.77,1.61-3,2.6-4.71l3.45-6.09,9.59-17a14.09,14.09,0,0,1,4.08-4.62,10.38,10.38,0,0,1,6.14-1.74,10.64,10.64,0,0,1,6.32,2,11.27,11.27,0,0,1,4.08,6.23l15.16,52.72H498.17l-5.65-20.89q-1.44-5.1-2.42-9t-1.71-7.53c-1,2.09-2.15,4.41-3.4,7s-2.9,5.75-4.94,9.63L472,577.91a16,16,0,0,1-2.37,3.54,10.3,10.3,0,0,1-2.47,2,7.72,7.72,0,0,1-2.69.95,22.45,22.45,0,0,1-6.27,0,7.72,7.72,0,0,1-2.69-.95,10.3,10.3,0,0,1-2.47-2,16,16,0,0,1-2.37-3.54l-8.07-15.16q-1.62-3-2.87-5.47t-2.29-4.34c-.69-1.29-1.29-2.47-1.79-3.55l-1.48-3.13q-.72,3.59-1.71,7.48c-.65,2.6-1.43,5.61-2.33,9l-5.64,20.89H406.26l15.52-52.72a11.21,11.21,0,0,1,4.12-6.23,10.83,10.83,0,0,1,6.37-2,10.37,10.37,0,0,1,6.05,1.7A13.38,13.38,0,0,1,442.4,529Z" transform="translate(-202.82 -513.71)"/><path class="cls-1" d="M548.82,583.64,560,568.22H580.7c1.94,0,3.63.06,5.06.18q-1.26-1.6-2.91-4.08t-3.18-4.61l-10.76-15.87-28.16,39.8h-22l38.46-54.24a20.64,20.64,0,0,1,4.75-4.66,12.08,12.08,0,0,1,7.26-2.06,12.24,12.24,0,0,1,7,1.92,18.41,18.41,0,0,1,4.8,4.8l37.48,54.24Z" transform="translate(-202.82 -513.71)"/><path class="cls-1" d="M698,583.64H679.54V560.51H643.86v23.13H625.21v-60h18.65v21.25h35.68V523.66H698Z" transform="translate(-202.82 -513.71)"/><path class="cls-1" d="M750.82,546q2,3.5,3.46,6.14t2.6,4.71c.74,1.37,1.4,2.63,2,3.76l1.66,3.32c.48-1.08,1-2.17,1.57-3.27s1.22-2.36,2-3.77,1.61-3,2.6-4.71,2.14-3.76,3.45-6.09l9.59-17a14.09,14.09,0,0,1,4.08-4.62,10.41,10.41,0,0,1,6.15-1.74,10.66,10.66,0,0,1,6.32,2,11.37,11.37,0,0,1,4.08,6.23l15.15,52.72H797l-5.65-20.89c-1-3.4-1.76-6.39-2.42-9s-1.23-5.08-1.7-7.53q-1.53,3.13-3.41,7t-4.93,9.63l-8.07,15.07a16.3,16.3,0,0,1-2.38,3.54,10.26,10.26,0,0,1-2.46,2,7.87,7.87,0,0,1-2.69.95,22.52,22.52,0,0,1-6.28,0,7.79,7.79,0,0,1-2.69-.95,10.08,10.08,0,0,1-2.46-2,16.3,16.3,0,0,1-2.38-3.54l-8.07-15.16c-1.08-2-2-3.85-2.87-5.47s-1.6-3.06-2.29-4.34-1.28-2.47-1.79-3.55L733,546.26c-.48,2.39-1,4.88-1.7,7.48s-1.44,5.61-2.33,9l-5.65,20.89H705.1l15.51-52.72a11.27,11.27,0,0,1,4.12-6.23,10.88,10.88,0,0,1,6.37-2,10.34,10.34,0,0,1,6,1.7,13.38,13.38,0,0,1,4.08,4.66Z" transform="translate(-202.82 -513.71)"/><path class="cls-1" d="M896.88,557.46q0,27.18-37.39,27.17a89,89,0,0,1-18.65-1.7A37.13,37.13,0,0,1,828,577.82a20.82,20.82,0,0,1-7.45-8.48,27.74,27.74,0,0,1-2.37-11.88v-33.8h18.47v33.8a15.17,15.17,0,0,0,.89,5.56,7.23,7.23,0,0,0,3.37,3.63,19.47,19.47,0,0,0,6.94,2,93.82,93.82,0,0,0,11.66.58,53.17,53.17,0,0,0,9-.63,15,15,0,0,0,5.74-2.06,8.2,8.2,0,0,0,3.09-3.68,13.78,13.78,0,0,0,.94-5.38v-33.8h18.65Z" transform="translate(-202.82 -513.71)"/><path class="cls-1" d="M983.67,553.07a27.27,27.27,0,0,1-2.74,12.15,29.55,29.55,0,0,1-7.53,9.68A35.67,35.67,0,0,1,962,581.31a43.07,43.07,0,0,1-14.43,2.33H907.37V546.26H926v22h21.52a23.47,23.47,0,0,0,7.12-1,17,17,0,0,0,5.61-2.91,13.85,13.85,0,0,0,3.67-4.53,13.35,13.35,0,0,0,0-11.7,13.69,13.69,0,0,0-3.76-4.62,19.26,19.26,0,0,0-5.65-3,21.34,21.34,0,0,0-7-1.12H907.37l11.83-15.6h28.34a47,47,0,0,1,14.52,2.15,35.21,35.21,0,0,1,11.43,6.06,27.74,27.74,0,0,1,7.49,9.32A26.43,26.43,0,0,1,983.67,553.07Z" transform="translate(-202.82 -513.71)"/></svg>